<mxfile host="app.diagrams.net" modified="2023-09-11T23:00:22.130Z" agent="Mozilla/5.0 (Windows NT 10.0; Win64; x64) AppleWebKit/537.36 (KHTML, like Gecko) Chrome/116.0.0.0 Safari/537.36" etag="DcvzF_Ws9pXVeTRBE-Pj" version="21.7.4" type="device">
  <diagram name="페이지-1" id="juinkZBUQEQZueJOUNw9">
    <mxGraphModel dx="1509" dy="780" grid="1" gridSize="10" guides="1" tooltips="1" connect="1" arrows="1" fold="1" page="1" pageScale="1" pageWidth="827" pageHeight="1169" math="0" shadow="0">
      <root>
        <mxCell id="0" />
        <mxCell id="1" parent="0" />
        <mxCell id="JYz4EtzU62Zac0oeaEgs-4" value="" style="edgeStyle=orthogonalEdgeStyle;rounded=0;orthogonalLoop=1;jettySize=auto;html=1;entryX=0.5;entryY=0;entryDx=0;entryDy=0;" parent="1" source="JYz4EtzU62Zac0oeaEgs-2" target="JYz4EtzU62Zac0oeaEgs-5" edge="1">
          <mxGeometry relative="1" as="geometry">
            <mxPoint x="80" y="110" as="targetPoint" />
          </mxGeometry>
        </mxCell>
        <mxCell id="JYz4EtzU62Zac0oeaEgs-2" value="여기어때 시작" style="rounded=0;whiteSpace=wrap;html=1;" parent="1" vertex="1">
          <mxGeometry x="17.5" y="10" width="105" height="60" as="geometry" />
        </mxCell>
        <mxCell id="JYz4EtzU62Zac0oeaEgs-11" value="" style="edgeStyle=orthogonalEdgeStyle;rounded=0;orthogonalLoop=1;jettySize=auto;html=1;" parent="1" source="JYz4EtzU62Zac0oeaEgs-5" target="JYz4EtzU62Zac0oeaEgs-10" edge="1">
          <mxGeometry relative="1" as="geometry" />
        </mxCell>
        <mxCell id="JYz4EtzU62Zac0oeaEgs-14" value="" style="edgeStyle=orthogonalEdgeStyle;rounded=0;orthogonalLoop=1;jettySize=auto;html=1;" parent="1" source="JYz4EtzU62Zac0oeaEgs-5" target="JYz4EtzU62Zac0oeaEgs-8" edge="1">
          <mxGeometry relative="1" as="geometry" />
        </mxCell>
        <mxCell id="JYz4EtzU62Zac0oeaEgs-5" value="가입여부" style="rhombus;whiteSpace=wrap;html=1;" parent="1" vertex="1">
          <mxGeometry x="30" y="130" width="80" height="80" as="geometry" />
        </mxCell>
        <mxCell id="JYz4EtzU62Zac0oeaEgs-21" value="" style="edgeStyle=orthogonalEdgeStyle;rounded=0;orthogonalLoop=1;jettySize=auto;html=1;" parent="1" source="JYz4EtzU62Zac0oeaEgs-8" target="JYz4EtzU62Zac0oeaEgs-20" edge="1">
          <mxGeometry relative="1" as="geometry" />
        </mxCell>
        <mxCell id="JYz4EtzU62Zac0oeaEgs-8" value="회원가입" style="rhombus;whiteSpace=wrap;html=1;" parent="1" vertex="1">
          <mxGeometry x="150" y="130" width="80" height="80" as="geometry" />
        </mxCell>
        <mxCell id="JYz4EtzU62Zac0oeaEgs-9" value="N" style="text;html=1;align=center;verticalAlign=middle;resizable=0;points=[];autosize=1;strokeColor=none;fillColor=none;" parent="1" vertex="1">
          <mxGeometry x="115" y="140" width="30" height="30" as="geometry" />
        </mxCell>
        <mxCell id="JYz4EtzU62Zac0oeaEgs-28" style="edgeStyle=orthogonalEdgeStyle;rounded=0;orthogonalLoop=1;jettySize=auto;html=1;entryX=0.5;entryY=0;entryDx=0;entryDy=0;" parent="1" source="JYz4EtzU62Zac0oeaEgs-10" target="JYz4EtzU62Zac0oeaEgs-27" edge="1">
          <mxGeometry relative="1" as="geometry" />
        </mxCell>
        <mxCell id="JYz4EtzU62Zac0oeaEgs-10" value="로그인" style="whiteSpace=wrap;html=1;" parent="1" vertex="1">
          <mxGeometry x="15" y="250" width="110" height="60" as="geometry" />
        </mxCell>
        <mxCell id="JYz4EtzU62Zac0oeaEgs-16" value="" style="endArrow=none;html=1;rounded=0;" parent="1" edge="1">
          <mxGeometry width="50" height="50" relative="1" as="geometry">
            <mxPoint x="190" y="130" as="sourcePoint" />
            <mxPoint x="190" y="100" as="targetPoint" />
          </mxGeometry>
        </mxCell>
        <mxCell id="JYz4EtzU62Zac0oeaEgs-17" value="" style="endArrow=classic;html=1;rounded=0;" parent="1" edge="1">
          <mxGeometry width="50" height="50" relative="1" as="geometry">
            <mxPoint x="190" y="100" as="sourcePoint" />
            <mxPoint x="90" y="100" as="targetPoint" />
          </mxGeometry>
        </mxCell>
        <mxCell id="JYz4EtzU62Zac0oeaEgs-18" value="Y" style="text;html=1;align=center;verticalAlign=middle;resizable=0;points=[];autosize=1;strokeColor=none;fillColor=none;" parent="1" vertex="1">
          <mxGeometry x="80" y="210" width="30" height="30" as="geometry" />
        </mxCell>
        <mxCell id="JYz4EtzU62Zac0oeaEgs-19" value="Y" style="text;html=1;align=center;verticalAlign=middle;resizable=0;points=[];autosize=1;strokeColor=none;fillColor=none;" parent="1" vertex="1">
          <mxGeometry x="160" y="70" width="30" height="30" as="geometry" />
        </mxCell>
        <mxCell id="JYz4EtzU62Zac0oeaEgs-29" style="edgeStyle=orthogonalEdgeStyle;rounded=0;orthogonalLoop=1;jettySize=auto;html=1;" parent="1" source="JYz4EtzU62Zac0oeaEgs-20" target="JYz4EtzU62Zac0oeaEgs-27" edge="1">
          <mxGeometry relative="1" as="geometry" />
        </mxCell>
        <mxCell id="JYz4EtzU62Zac0oeaEgs-20" value="비회원" style="whiteSpace=wrap;html=1;" parent="1" vertex="1">
          <mxGeometry x="135" y="250" width="110" height="60" as="geometry" />
        </mxCell>
        <mxCell id="JYz4EtzU62Zac0oeaEgs-22" value="N" style="text;html=1;align=center;verticalAlign=middle;resizable=0;points=[];autosize=1;strokeColor=none;fillColor=none;" parent="1" vertex="1">
          <mxGeometry x="190" y="210" width="30" height="30" as="geometry" />
        </mxCell>
        <mxCell id="JYz4EtzU62Zac0oeaEgs-33" value="" style="edgeStyle=orthogonalEdgeStyle;rounded=0;orthogonalLoop=1;jettySize=auto;html=1;entryX=0.5;entryY=0;entryDx=0;entryDy=0;" parent="1" target="JYz4EtzU62Zac0oeaEgs-32" edge="1">
          <mxGeometry relative="1" as="geometry">
            <mxPoint x="90" y="390" as="sourcePoint" />
            <mxPoint x="25" y="450" as="targetPoint" />
            <Array as="points">
              <mxPoint x="65" y="390" />
            </Array>
          </mxGeometry>
        </mxCell>
        <mxCell id="JYz4EtzU62Zac0oeaEgs-35" value="" style="edgeStyle=orthogonalEdgeStyle;rounded=0;orthogonalLoop=1;jettySize=auto;html=1;" parent="1" edge="1">
          <mxGeometry relative="1" as="geometry">
            <mxPoint x="155" y="390" as="sourcePoint" />
            <mxPoint x="195" y="450" as="targetPoint" />
            <Array as="points">
              <mxPoint x="195" y="390" />
            </Array>
          </mxGeometry>
        </mxCell>
        <mxCell id="JYz4EtzU62Zac0oeaEgs-27" value="조건체크" style="rhombus;whiteSpace=wrap;html=1;" parent="1" vertex="1">
          <mxGeometry x="90" y="350" width="80" height="80" as="geometry" />
        </mxCell>
        <mxCell id="JYz4EtzU62Zac0oeaEgs-38" style="edgeStyle=orthogonalEdgeStyle;rounded=0;orthogonalLoop=1;jettySize=auto;html=1;entryX=0.5;entryY=0;entryDx=0;entryDy=0;" parent="1" source="JYz4EtzU62Zac0oeaEgs-32" target="JYz4EtzU62Zac0oeaEgs-37" edge="1">
          <mxGeometry relative="1" as="geometry" />
        </mxCell>
        <mxCell id="JYz4EtzU62Zac0oeaEgs-32" value="조건검색" style="whiteSpace=wrap;html=1;" parent="1" vertex="1">
          <mxGeometry x="5" y="450" width="120" height="60" as="geometry" />
        </mxCell>
        <mxCell id="JYz4EtzU62Zac0oeaEgs-39" style="edgeStyle=orthogonalEdgeStyle;rounded=0;orthogonalLoop=1;jettySize=auto;html=1;entryX=0.5;entryY=0;entryDx=0;entryDy=0;" parent="1" source="JYz4EtzU62Zac0oeaEgs-34" target="JYz4EtzU62Zac0oeaEgs-37" edge="1">
          <mxGeometry relative="1" as="geometry" />
        </mxCell>
        <mxCell id="JYz4EtzU62Zac0oeaEgs-34" value="기본검색(HOT)" style="whiteSpace=wrap;html=1;" parent="1" vertex="1">
          <mxGeometry x="135" y="450" width="120" height="60" as="geometry" />
        </mxCell>
        <mxCell id="JYz4EtzU62Zac0oeaEgs-61" value="" style="edgeStyle=orthogonalEdgeStyle;rounded=0;orthogonalLoop=1;jettySize=auto;html=1;" parent="1" source="JYz4EtzU62Zac0oeaEgs-37" target="JYz4EtzU62Zac0oeaEgs-44" edge="1">
          <mxGeometry relative="1" as="geometry" />
        </mxCell>
        <mxCell id="JYz4EtzU62Zac0oeaEgs-37" value="숙소선택" style="rounded=0;whiteSpace=wrap;html=1;" parent="1" vertex="1">
          <mxGeometry x="70" y="555" width="120" height="60" as="geometry" />
        </mxCell>
        <mxCell id="JYz4EtzU62Zac0oeaEgs-42" value="Y" style="text;html=1;align=center;verticalAlign=middle;resizable=0;points=[];autosize=1;strokeColor=none;fillColor=none;" parent="1" vertex="1">
          <mxGeometry x="50" y="360" width="30" height="30" as="geometry" />
        </mxCell>
        <mxCell id="JYz4EtzU62Zac0oeaEgs-43" value="N" style="text;html=1;align=center;verticalAlign=middle;resizable=0;points=[];autosize=1;strokeColor=none;fillColor=none;" parent="1" vertex="1">
          <mxGeometry x="175" y="360" width="30" height="30" as="geometry" />
        </mxCell>
        <mxCell id="JYz4EtzU62Zac0oeaEgs-53" value="" style="edgeStyle=orthogonalEdgeStyle;rounded=0;orthogonalLoop=1;jettySize=auto;html=1;" parent="1" source="JYz4EtzU62Zac0oeaEgs-44" target="JYz4EtzU62Zac0oeaEgs-52" edge="1">
          <mxGeometry relative="1" as="geometry" />
        </mxCell>
        <mxCell id="JYz4EtzU62Zac0oeaEgs-44" value="&quot;기간&quot; 선택" style="html=1;strokeWidth=2;shape=manualInput;whiteSpace=wrap;rounded=1;size=26;arcSize=11;" parent="1" vertex="1">
          <mxGeometry x="70" y="655" width="120" height="60" as="geometry" />
        </mxCell>
        <mxCell id="JYz4EtzU62Zac0oeaEgs-66" value="" style="edgeStyle=orthogonalEdgeStyle;rounded=0;orthogonalLoop=1;jettySize=auto;html=1;" parent="1" source="JYz4EtzU62Zac0oeaEgs-49" target="JYz4EtzU62Zac0oeaEgs-65" edge="1">
          <mxGeometry relative="1" as="geometry" />
        </mxCell>
        <mxCell id="JYz4EtzU62Zac0oeaEgs-49" value="[예약]버튼 클릭" style="rounded=0;whiteSpace=wrap;html=1;" parent="1" vertex="1">
          <mxGeometry x="70" y="835" width="120" height="60" as="geometry" />
        </mxCell>
        <mxCell id="JYz4EtzU62Zac0oeaEgs-54" value="" style="edgeStyle=orthogonalEdgeStyle;rounded=0;orthogonalLoop=1;jettySize=auto;html=1;" parent="1" source="JYz4EtzU62Zac0oeaEgs-52" target="JYz4EtzU62Zac0oeaEgs-49" edge="1">
          <mxGeometry relative="1" as="geometry" />
        </mxCell>
        <mxCell id="JYz4EtzU62Zac0oeaEgs-57" value="" style="edgeStyle=orthogonalEdgeStyle;rounded=0;orthogonalLoop=1;jettySize=auto;html=1;" parent="1" source="JYz4EtzU62Zac0oeaEgs-52" target="JYz4EtzU62Zac0oeaEgs-56" edge="1">
          <mxGeometry relative="1" as="geometry" />
        </mxCell>
        <mxCell id="JYz4EtzU62Zac0oeaEgs-52" value="예약가능" style="rhombus;whiteSpace=wrap;html=1;" parent="1" vertex="1">
          <mxGeometry x="90" y="735" width="80" height="80" as="geometry" />
        </mxCell>
        <mxCell id="JYz4EtzU62Zac0oeaEgs-55" value="Y" style="text;html=1;align=center;verticalAlign=middle;resizable=0;points=[];autosize=1;strokeColor=none;fillColor=none;" parent="1" vertex="1">
          <mxGeometry x="100" y="805" width="30" height="30" as="geometry" />
        </mxCell>
        <mxCell id="JYz4EtzU62Zac0oeaEgs-56" value="숙소에 문의 하세요" style="whiteSpace=wrap;html=1;" parent="1" vertex="1">
          <mxGeometry x="190" y="745" width="120" height="60" as="geometry" />
        </mxCell>
        <mxCell id="JYz4EtzU62Zac0oeaEgs-62" value="" style="endArrow=none;html=1;rounded=0;" parent="1" edge="1">
          <mxGeometry width="50" height="50" relative="1" as="geometry">
            <mxPoint x="255" y="745" as="sourcePoint" />
            <mxPoint x="254.5" y="630" as="targetPoint" />
          </mxGeometry>
        </mxCell>
        <mxCell id="JYz4EtzU62Zac0oeaEgs-63" value="" style="endArrow=classic;html=1;rounded=0;" parent="1" edge="1">
          <mxGeometry width="50" height="50" relative="1" as="geometry">
            <mxPoint x="254.5" y="630" as="sourcePoint" />
            <mxPoint x="154.5" y="630" as="targetPoint" />
          </mxGeometry>
        </mxCell>
        <mxCell id="JYz4EtzU62Zac0oeaEgs-64" value="N" style="text;html=1;align=center;verticalAlign=middle;resizable=0;points=[];autosize=1;strokeColor=none;fillColor=none;" parent="1" vertex="1">
          <mxGeometry x="160" y="745" width="30" height="30" as="geometry" />
        </mxCell>
        <mxCell id="JYz4EtzU62Zac0oeaEgs-75" value="" style="edgeStyle=orthogonalEdgeStyle;rounded=0;orthogonalLoop=1;jettySize=auto;html=1;" parent="1" source="JYz4EtzU62Zac0oeaEgs-65" target="JYz4EtzU62Zac0oeaEgs-69" edge="1">
          <mxGeometry relative="1" as="geometry" />
        </mxCell>
        <mxCell id="JYz4EtzU62Zac0oeaEgs-76" value="" style="edgeStyle=orthogonalEdgeStyle;rounded=0;orthogonalLoop=1;jettySize=auto;html=1;" parent="1" source="JYz4EtzU62Zac0oeaEgs-65" edge="1">
          <mxGeometry relative="1" as="geometry">
            <mxPoint x="130" y="1020" as="targetPoint" />
          </mxGeometry>
        </mxCell>
        <mxCell id="JYz4EtzU62Zac0oeaEgs-65" value="대실여부" style="rhombus;whiteSpace=wrap;html=1;" parent="1" vertex="1">
          <mxGeometry x="90" y="920" width="80" height="80" as="geometry" />
        </mxCell>
        <mxCell id="JYz4EtzU62Zac0oeaEgs-69" value="&quot;시간&quot; 선택" style="html=1;strokeWidth=2;shape=manualInput;whiteSpace=wrap;rounded=1;size=26;arcSize=11;" parent="1" vertex="1">
          <mxGeometry x="205" y="930" width="120" height="60" as="geometry" />
        </mxCell>
        <mxCell id="JYz4EtzU62Zac0oeaEgs-70" value="Y" style="text;html=1;align=center;verticalAlign=middle;resizable=0;points=[];autosize=1;strokeColor=none;fillColor=none;" parent="1" vertex="1">
          <mxGeometry x="170" y="930" width="30" height="30" as="geometry" />
        </mxCell>
        <mxCell id="JYz4EtzU62Zac0oeaEgs-84" value="" style="endArrow=none;html=1;rounded=0;" parent="1" edge="1">
          <mxGeometry width="50" height="50" relative="1" as="geometry">
            <mxPoint x="270" y="990" as="sourcePoint" />
            <mxPoint x="270.5" y="1050" as="targetPoint" />
          </mxGeometry>
        </mxCell>
        <mxCell id="JYz4EtzU62Zac0oeaEgs-85" value="" style="endArrow=classic;html=1;rounded=0;" parent="1" edge="1">
          <mxGeometry width="50" height="50" relative="1" as="geometry">
            <mxPoint x="270" y="1050" as="sourcePoint" />
            <mxPoint x="190" y="1049.5" as="targetPoint" />
          </mxGeometry>
        </mxCell>
        <mxCell id="JYz4EtzU62Zac0oeaEgs-91" style="edgeStyle=orthogonalEdgeStyle;rounded=0;orthogonalLoop=1;jettySize=auto;html=1;entryX=0;entryY=0.5;entryDx=0;entryDy=0;" parent="1" source="JYz4EtzU62Zac0oeaEgs-87" target="JYz4EtzU62Zac0oeaEgs-94" edge="1">
          <mxGeometry relative="1" as="geometry">
            <mxPoint x="280" y="1130" as="targetPoint" />
            <Array as="points">
              <mxPoint x="130" y="1130" />
              <mxPoint x="340" y="1130" />
              <mxPoint x="340" y="40" />
            </Array>
          </mxGeometry>
        </mxCell>
        <mxCell id="JYz4EtzU62Zac0oeaEgs-87" value="&quot;예약자 이름&quot; 입력&lt;br&gt;&quot;휴대폰번호&quot; 인증" style="html=1;strokeWidth=2;shape=manualInput;whiteSpace=wrap;rounded=1;size=26;arcSize=11;" parent="1" vertex="1">
          <mxGeometry x="70" y="1010" width="120" height="90" as="geometry" />
        </mxCell>
        <mxCell id="JYz4EtzU62Zac0oeaEgs-96" value="" style="edgeStyle=orthogonalEdgeStyle;rounded=0;orthogonalLoop=1;jettySize=auto;html=1;" parent="1" source="JYz4EtzU62Zac0oeaEgs-94" target="JYz4EtzU62Zac0oeaEgs-95" edge="1">
          <mxGeometry relative="1" as="geometry" />
        </mxCell>
        <mxCell id="JYz4EtzU62Zac0oeaEgs-94" value="로그인" style="rhombus;whiteSpace=wrap;html=1;" parent="1" vertex="1">
          <mxGeometry x="375" width="80" height="80" as="geometry" />
        </mxCell>
        <mxCell id="JYz4EtzU62Zac0oeaEgs-102" value="" style="edgeStyle=orthogonalEdgeStyle;rounded=0;orthogonalLoop=1;jettySize=auto;html=1;" parent="1" source="JYz4EtzU62Zac0oeaEgs-95" edge="1">
          <mxGeometry relative="1" as="geometry">
            <mxPoint x="435" y="190" as="targetPoint" />
            <Array as="points">
              <mxPoint x="495" y="140" />
              <mxPoint x="495" y="190" />
            </Array>
          </mxGeometry>
        </mxCell>
        <mxCell id="JYz4EtzU62Zac0oeaEgs-105" value="" style="edgeStyle=orthogonalEdgeStyle;rounded=0;orthogonalLoop=1;jettySize=auto;html=1;" parent="1" source="JYz4EtzU62Zac0oeaEgs-95" target="JYz4EtzU62Zac0oeaEgs-104" edge="1">
          <mxGeometry relative="1" as="geometry" />
        </mxCell>
        <mxCell id="JYz4EtzU62Zac0oeaEgs-95" value="혜택사용" style="rhombus;whiteSpace=wrap;html=1;" parent="1" vertex="1">
          <mxGeometry x="375" y="100" width="80" height="80" as="geometry" />
        </mxCell>
        <mxCell id="JYz4EtzU62Zac0oeaEgs-99" value="Y" style="text;html=1;align=center;verticalAlign=middle;resizable=0;points=[];autosize=1;strokeColor=none;fillColor=none;" parent="1" vertex="1">
          <mxGeometry x="385" y="80" width="30" height="30" as="geometry" />
        </mxCell>
        <mxCell id="JYz4EtzU62Zac0oeaEgs-100" value="N" style="text;html=1;align=center;verticalAlign=middle;resizable=0;points=[];autosize=1;strokeColor=none;fillColor=none;" parent="1" vertex="1">
          <mxGeometry x="445" y="10" width="30" height="30" as="geometry" />
        </mxCell>
        <mxCell id="JYz4EtzU62Zac0oeaEgs-103" value="N" style="text;html=1;align=center;verticalAlign=middle;resizable=0;points=[];autosize=1;strokeColor=none;fillColor=none;" parent="1" vertex="1">
          <mxGeometry x="455" y="110" width="30" height="30" as="geometry" />
        </mxCell>
        <mxCell id="JYz4EtzU62Zac0oeaEgs-108" value="" style="edgeStyle=orthogonalEdgeStyle;rounded=0;orthogonalLoop=1;jettySize=auto;html=1;" parent="1" source="JYz4EtzU62Zac0oeaEgs-104" target="JYz4EtzU62Zac0oeaEgs-107" edge="1">
          <mxGeometry relative="1" as="geometry" />
        </mxCell>
        <mxCell id="JYz4EtzU62Zac0oeaEgs-104" value="&quot;결제수단&quot; 선택" style="html=1;strokeWidth=2;shape=manualInput;whiteSpace=wrap;rounded=1;size=26;arcSize=11;" parent="1" vertex="1">
          <mxGeometry x="360" y="210" width="110" height="60" as="geometry" />
        </mxCell>
        <mxCell id="JYz4EtzU62Zac0oeaEgs-106" value="" style="endArrow=none;html=1;rounded=0;entryX=1;entryY=0.5;entryDx=0;entryDy=0;" parent="1" target="JYz4EtzU62Zac0oeaEgs-94" edge="1">
          <mxGeometry width="50" height="50" relative="1" as="geometry">
            <mxPoint x="495" y="140" as="sourcePoint" />
            <mxPoint x="535" y="50" as="targetPoint" />
            <Array as="points">
              <mxPoint x="495" y="40" />
            </Array>
          </mxGeometry>
        </mxCell>
        <mxCell id="JYz4EtzU62Zac0oeaEgs-114" value="" style="edgeStyle=orthogonalEdgeStyle;rounded=0;orthogonalLoop=1;jettySize=auto;html=1;" parent="1" source="JYz4EtzU62Zac0oeaEgs-107" target="JYz4EtzU62Zac0oeaEgs-113" edge="1">
          <mxGeometry relative="1" as="geometry" />
        </mxCell>
        <mxCell id="JYz4EtzU62Zac0oeaEgs-107" value="약관동의" style="rhombus;whiteSpace=wrap;html=1;" parent="1" vertex="1">
          <mxGeometry x="375" y="290" width="80" height="80" as="geometry" />
        </mxCell>
        <mxCell id="JYz4EtzU62Zac0oeaEgs-110" value="" style="endArrow=none;html=1;rounded=0;" parent="1" edge="1">
          <mxGeometry width="50" height="50" relative="1" as="geometry">
            <mxPoint x="455" y="330" as="sourcePoint" />
            <mxPoint x="475" y="280" as="targetPoint" />
            <Array as="points">
              <mxPoint x="475" y="330" />
            </Array>
          </mxGeometry>
        </mxCell>
        <mxCell id="JYz4EtzU62Zac0oeaEgs-111" value="" style="endArrow=classic;html=1;rounded=0;" parent="1" edge="1">
          <mxGeometry width="50" height="50" relative="1" as="geometry">
            <mxPoint x="475" y="279.5" as="sourcePoint" />
            <mxPoint x="425" y="280" as="targetPoint" />
          </mxGeometry>
        </mxCell>
        <mxCell id="JYz4EtzU62Zac0oeaEgs-112" value="N" style="text;html=1;align=center;verticalAlign=middle;resizable=0;points=[];autosize=1;strokeColor=none;fillColor=none;" parent="1" vertex="1">
          <mxGeometry x="445" y="300" width="30" height="30" as="geometry" />
        </mxCell>
        <mxCell id="JYz4EtzU62Zac0oeaEgs-120" value="" style="edgeStyle=orthogonalEdgeStyle;rounded=0;orthogonalLoop=1;jettySize=auto;html=1;" parent="1" source="JYz4EtzU62Zac0oeaEgs-113" target="JYz4EtzU62Zac0oeaEgs-118" edge="1">
          <mxGeometry relative="1" as="geometry" />
        </mxCell>
        <mxCell id="JYz4EtzU62Zac0oeaEgs-113" value="[결제하기]버튼 클릭" style="whiteSpace=wrap;html=1;" parent="1" vertex="1">
          <mxGeometry x="360" y="390" width="110" height="60" as="geometry" />
        </mxCell>
        <mxCell id="JYz4EtzU62Zac0oeaEgs-115" value="Y" style="text;html=1;align=center;verticalAlign=middle;resizable=0;points=[];autosize=1;strokeColor=none;fillColor=none;" parent="1" vertex="1">
          <mxGeometry x="414" y="360" width="30" height="30" as="geometry" />
        </mxCell>
        <mxCell id="JYz4EtzU62Zac0oeaEgs-122" style="edgeStyle=orthogonalEdgeStyle;rounded=0;orthogonalLoop=1;jettySize=auto;html=1;entryX=0;entryY=0.5;entryDx=0;entryDy=0;" parent="1" source="JYz4EtzU62Zac0oeaEgs-118" target="kHAY2jAhkSKkBS1IIFaK-5" edge="1">
          <mxGeometry relative="1" as="geometry">
            <mxPoint x="540" y="40" as="targetPoint" />
          </mxGeometry>
        </mxCell>
        <mxCell id="JYz4EtzU62Zac0oeaEgs-118" value="예약완료" style="whiteSpace=wrap;html=1;" parent="1" vertex="1">
          <mxGeometry x="360" y="480" width="110" height="60" as="geometry" />
        </mxCell>
        <mxCell id="JYz4EtzU62Zac0oeaEgs-124" value="" style="edgeStyle=orthogonalEdgeStyle;rounded=0;orthogonalLoop=1;jettySize=auto;html=1;exitX=0.5;exitY=1;exitDx=0;exitDy=0;" parent="1" source="kHAY2jAhkSKkBS1IIFaK-5" target="JYz4EtzU62Zac0oeaEgs-123" edge="1">
          <mxGeometry relative="1" as="geometry">
            <mxPoint x="600" y="70" as="sourcePoint" />
          </mxGeometry>
        </mxCell>
        <mxCell id="JYz4EtzU62Zac0oeaEgs-126" value="" style="edgeStyle=orthogonalEdgeStyle;rounded=0;orthogonalLoop=1;jettySize=auto;html=1;" parent="1" source="JYz4EtzU62Zac0oeaEgs-123" target="JYz4EtzU62Zac0oeaEgs-125" edge="1">
          <mxGeometry relative="1" as="geometry" />
        </mxCell>
        <mxCell id="JYz4EtzU62Zac0oeaEgs-129" value="" style="edgeStyle=orthogonalEdgeStyle;rounded=0;orthogonalLoop=1;jettySize=auto;html=1;" parent="1" source="JYz4EtzU62Zac0oeaEgs-123" target="JYz4EtzU62Zac0oeaEgs-128" edge="1">
          <mxGeometry relative="1" as="geometry" />
        </mxCell>
        <mxCell id="JYz4EtzU62Zac0oeaEgs-123" value="회원여부" style="rhombus;whiteSpace=wrap;html=1;" parent="1" vertex="1">
          <mxGeometry x="560" y="170" width="80" height="80" as="geometry" />
        </mxCell>
        <mxCell id="JYz4EtzU62Zac0oeaEgs-125" value="리뷰작성 불가능" style="whiteSpace=wrap;html=1;" parent="1" vertex="1">
          <mxGeometry x="660" y="180" width="120" height="60" as="geometry" />
        </mxCell>
        <mxCell id="JYz4EtzU62Zac0oeaEgs-127" value="N" style="text;html=1;align=center;verticalAlign=middle;resizable=0;points=[];autosize=1;strokeColor=none;fillColor=none;" parent="1" vertex="1">
          <mxGeometry x="630" y="180" width="30" height="30" as="geometry" />
        </mxCell>
        <mxCell id="JYz4EtzU62Zac0oeaEgs-131" value="" style="edgeStyle=orthogonalEdgeStyle;rounded=0;orthogonalLoop=1;jettySize=auto;html=1;" parent="1" source="JYz4EtzU62Zac0oeaEgs-128" target="JYz4EtzU62Zac0oeaEgs-130" edge="1">
          <mxGeometry relative="1" as="geometry" />
        </mxCell>
        <mxCell id="JYz4EtzU62Zac0oeaEgs-134" value="" style="edgeStyle=orthogonalEdgeStyle;rounded=0;orthogonalLoop=1;jettySize=auto;html=1;" parent="1" source="JYz4EtzU62Zac0oeaEgs-128" target="JYz4EtzU62Zac0oeaEgs-133" edge="1">
          <mxGeometry relative="1" as="geometry" />
        </mxCell>
        <mxCell id="JYz4EtzU62Zac0oeaEgs-128" value="이용여부" style="rhombus;whiteSpace=wrap;html=1;" parent="1" vertex="1">
          <mxGeometry x="560" y="270" width="80" height="80" as="geometry" />
        </mxCell>
        <mxCell id="JYz4EtzU62Zac0oeaEgs-130" value="리뷰작성 불가능" style="whiteSpace=wrap;html=1;" parent="1" vertex="1">
          <mxGeometry x="660" y="280" width="120" height="60" as="geometry" />
        </mxCell>
        <mxCell id="JYz4EtzU62Zac0oeaEgs-132" value="N" style="text;html=1;align=center;verticalAlign=middle;resizable=0;points=[];autosize=1;strokeColor=none;fillColor=none;" parent="1" vertex="1">
          <mxGeometry x="630" y="280" width="30" height="30" as="geometry" />
        </mxCell>
        <mxCell id="JYz4EtzU62Zac0oeaEgs-133" value="리뷰 작성" style="whiteSpace=wrap;html=1;" parent="1" vertex="1">
          <mxGeometry x="540" y="380" width="120" height="60" as="geometry" />
        </mxCell>
        <mxCell id="JYz4EtzU62Zac0oeaEgs-135" value="Y" style="text;html=1;align=center;verticalAlign=middle;resizable=0;points=[];autosize=1;strokeColor=none;fillColor=none;" parent="1" vertex="1">
          <mxGeometry x="600" y="345" width="30" height="30" as="geometry" />
        </mxCell>
        <mxCell id="JYz4EtzU62Zac0oeaEgs-136" value="Y" style="text;html=1;align=center;verticalAlign=middle;resizable=0;points=[];autosize=1;strokeColor=none;fillColor=none;" parent="1" vertex="1">
          <mxGeometry x="375" y="180" width="30" height="30" as="geometry" />
        </mxCell>
        <mxCell id="kHAY2jAhkSKkBS1IIFaK-1" value="N" style="text;html=1;align=center;verticalAlign=middle;resizable=0;points=[];autosize=1;strokeColor=#6c8ebf;fillColor=#dae8fc;" vertex="1" parent="1">
          <mxGeometry x="92.5" y="991" width="30" height="30" as="geometry" />
        </mxCell>
        <mxCell id="kHAY2jAhkSKkBS1IIFaK-4" value="Y" style="text;html=1;align=center;verticalAlign=middle;resizable=0;points=[];autosize=1;strokeColor=none;fillColor=none;" vertex="1" parent="1">
          <mxGeometry x="600" y="240" width="30" height="30" as="geometry" />
        </mxCell>
        <mxCell id="kHAY2jAhkSKkBS1IIFaK-5" value="리뷰 작성" style="rhombus;whiteSpace=wrap;html=1;fillColor=#dae8fc;strokeColor=#6c8ebf;" vertex="1" parent="1">
          <mxGeometry x="560" width="80" height="80" as="geometry" />
        </mxCell>
        <mxCell id="kHAY2jAhkSKkBS1IIFaK-6" value="Y" style="text;html=1;align=center;verticalAlign=middle;resizable=0;points=[];autosize=1;strokeColor=none;fillColor=none;" vertex="1" parent="1">
          <mxGeometry x="600" y="80" width="30" height="30" as="geometry" />
        </mxCell>
        <mxCell id="kHAY2jAhkSKkBS1IIFaK-7" value="N" style="text;html=1;align=center;verticalAlign=middle;resizable=0;points=[];autosize=1;strokeColor=none;fillColor=none;" vertex="1" parent="1">
          <mxGeometry x="640" y="10" width="30" height="30" as="geometry" />
        </mxCell>
        <mxCell id="kHAY2jAhkSKkBS1IIFaK-8" value="여기어때 종료" style="rounded=0;whiteSpace=wrap;html=1;fillColor=#dae8fc;strokeColor=#6c8ebf;" vertex="1" parent="1">
          <mxGeometry x="540" y="480" width="120" height="60" as="geometry" />
        </mxCell>
        <mxCell id="kHAY2jAhkSKkBS1IIFaK-9" value="" style="edgeStyle=orthogonalEdgeStyle;rounded=0;orthogonalLoop=1;jettySize=auto;html=1;exitX=0.5;exitY=1;exitDx=0;exitDy=0;entryX=0.5;entryY=0;entryDx=0;entryDy=0;" edge="1" parent="1" source="JYz4EtzU62Zac0oeaEgs-133" target="kHAY2jAhkSKkBS1IIFaK-8">
          <mxGeometry relative="1" as="geometry">
            <mxPoint x="425" y="460" as="sourcePoint" />
            <mxPoint x="425" y="490" as="targetPoint" />
          </mxGeometry>
        </mxCell>
        <mxCell id="kHAY2jAhkSKkBS1IIFaK-10" style="edgeStyle=orthogonalEdgeStyle;rounded=0;orthogonalLoop=1;jettySize=auto;html=1;entryX=1;entryY=0.5;entryDx=0;entryDy=0;exitX=1;exitY=0.5;exitDx=0;exitDy=0;" edge="1" parent="1" source="kHAY2jAhkSKkBS1IIFaK-5" target="kHAY2jAhkSKkBS1IIFaK-8">
          <mxGeometry relative="1" as="geometry">
            <mxPoint x="570" y="50" as="targetPoint" />
            <mxPoint x="480" y="520" as="sourcePoint" />
            <Array as="points">
              <mxPoint x="800" y="40" />
              <mxPoint x="800" y="510" />
            </Array>
          </mxGeometry>
        </mxCell>
      </root>
    </mxGraphModel>
  </diagram>
</mxfile>
